<svg width="18" height="15" viewBox="0 0 18 15" fill="none" xmlns="http://www.w3.org/2000/svg">
<path fill-rule="evenodd" clip-rule="evenodd" d="M17.1416 7.5C17.1416 7.78411 17.0287 8.05658 16.8278 8.25748C16.6269 8.45837 16.3545 8.57124 16.0704 8.57124L3.65903 8.57124L8.25892 13.169C8.35852 13.2686 8.43752 13.3868 8.49143 13.5169C8.54533 13.6471 8.57307 13.7866 8.57307 13.9274C8.57307 14.0683 8.54533 14.2077 8.49143 14.3379C8.43752 14.468 8.35852 14.5862 8.25892 14.6858C8.15932 14.7854 8.04108 14.8645 7.91095 14.9184C7.78081 14.9723 7.64134 15 7.50048 15C7.35963 15 7.22015 14.9723 7.09002 14.9184C6.95989 14.8645 6.84165 14.7854 6.74205 14.6858L0.314639 8.25843C0.214879 8.15893 0.13573 8.04071 0.0817263 7.91057C0.0277222 7.78042 -7.60419e-05 7.6409 -7.60376e-05 7.5C-7.60334e-05 7.3591 0.0277222 7.21957 0.0817263 7.08943C0.13573 6.95929 0.214879 6.84107 0.314639 6.74156L6.74205 0.314153C6.84165 0.214554 6.95989 0.135548 7.09002 0.0816454C7.22016 0.0277428 7.35963 -6.21455e-07 7.50048 -6.12506e-07C7.64134 -6.03558e-07 7.78081 0.0277428 7.91095 0.0816454C8.04108 0.135548 8.15932 0.214555 8.25892 0.314154C8.46007 0.515303 8.57307 0.78812 8.57307 1.07259C8.57307 1.21344 8.54533 1.35292 8.49143 1.48305C8.43753 1.61318 8.35852 1.73142 8.25892 1.83102L3.65903 6.42876L16.0704 6.42877C16.3545 6.42877 16.6269 6.54163 16.8278 6.74252C17.0287 6.94342 17.1416 7.21589 17.1416 7.5V7.5Z" fill="white"/>
</svg>
