<?xml version="1.0" encoding="utf-8"?>
<!-- Generator: Adobe Illustrator 25.4.1, SVG Export Plug-In . SVG Version: 6.00 Build 0)  -->
<svg version="1.1" id="Capa_1" xmlns="http://www.w3.org/2000/svg" xmlns:xlink="http://www.w3.org/1999/xlink" x="0px" y="0px"
	 viewBox="0 0 18 15" style="enable-background:new 0 0 18 15;" xml:space="preserve">
<style type="text/css">
	.st0{fill-rule:evenodd;clip-rule:evenodd;fill:#FFFFFF;}
</style>
<path class="st0" d="M0,7.5c0-0.3,0.1-0.6,0.3-0.8c0.2-0.2,0.5-0.3,0.8-0.3h12.4L8.9,1.8C8.8,1.7,8.7,1.6,8.7,1.5
	C8.6,1.4,8.6,1.2,8.6,1.1c0-0.1,0-0.3,0.1-0.4c0.1-0.1,0.1-0.2,0.2-0.3C9,0.2,9.1,0.1,9.2,0.1C9.4,0,9.5,0,9.6,0
	c0.1,0,0.3,0,0.4,0.1c0.1,0.1,0.2,0.1,0.3,0.2l6.4,6.4C16.9,6.8,17,7,17.1,7.1c0.1,0.1,0.1,0.3,0.1,0.4s0,0.3-0.1,0.4
	C17,8,16.9,8.2,16.8,8.3l-6.4,6.4c-0.1,0.1-0.2,0.2-0.3,0.2C9.9,15,9.8,15,9.6,15c-0.1,0-0.3,0-0.4-0.1c-0.1-0.1-0.2-0.1-0.3-0.2
	c-0.2-0.2-0.3-0.5-0.3-0.8c0-0.1,0-0.3,0.1-0.4c0.1-0.1,0.1-0.2,0.2-0.3l4.6-4.6l-12.4,0c-0.3,0-0.6-0.1-0.8-0.3
	C0.1,8.1,0,7.8,0,7.5L0,7.5z"/>
</svg>
