<svg width="13" height="13" viewBox="0 0 13 13" fill="none" xmlns="http://www.w3.org/2000/svg">
<path d="M0 1.44444V11.5556C0 11.9386 0.152182 12.306 0.423068 12.5769C0.693954 12.8478 1.06135 13 1.44444 13H11.5556C11.9386 13 12.306 12.8478 12.5769 12.5769C12.8478 12.306 13 11.9386 13 11.5556V1.44444C13 1.06135 12.8478 0.693954 12.5769 0.423068C12.306 0.152182 11.9386 0 11.5556 0H1.44444C1.06135 0 0.693954 0.152182 0.423068 0.423068C0.152182 0.693954 0 1.06135 0 1.44444ZM5.05556 2.88889H10.8333V4.33333H5.05556V2.88889ZM5.05556 5.77778H10.8333V7.22222H5.05556V5.77778ZM5.05556 8.66667H10.8333V10.1111H5.05556V8.66667ZM2.16667 2.88889H3.61111V4.33333H2.16667V2.88889ZM2.16667 5.77778H3.61111V7.22222H2.16667V5.77778ZM2.16667 8.66667H3.61111V10.1111H2.16667V8.66667Z" fill="#5D6F88"/>
</svg>
